<svg width="18" height="23" viewBox="0 0 18 23" fill="none" xmlns="http://www.w3.org/2000/svg">
<path d="M17.3594 0.25L9.82813 0.250001C8.11979 0.250001 6.67708 0.510418 5.5 1.03125C4.3125 1.55208 3.41146 2.32292 2.79688 3.34375C2.17188 4.35417 1.85938 5.59896 1.85938 7.07813C1.85938 8.11979 2.07292 9.07292 2.5 9.9375C2.91667 10.7917 3.52083 11.5208 4.3125 12.125C5.09375 12.7188 6.03125 13.1615 7.125 13.4531L7.96875 13.7813L15.0469 13.7813L15.0781 11.3281L9.73438 11.3281C8.65104 11.3281 7.75 11.1406 7.03125 10.7656C6.3125 10.3802 5.77083 9.86458 5.40625 9.21875C5.04167 8.57292 4.85938 7.85938 4.85938 7.07813C4.85938 6.20313 5.03125 5.4375 5.375 4.78125C5.71875 4.125 6.26042 3.61979 7 3.26563C7.72917 2.90104 8.67188 2.71875 9.82813 2.71875L14.3438 2.71875L14.3438 23L17.3594 23L17.3594 0.25ZM4.0625 23L9.59375 12.6875L6.45313 12.6719L0.843753 22.8125L0.843753 23L4.0625 23Z" fill="#FBFBFB"/>
</svg>
